<svg viewBox="0 0 105 20" fill="none" xmlns="http://www.w3.org/2000/svg">
    <path d="M11.2959 3.2419C10.2667 1.42145 8.53469 0.399002 6.42612 0.399002C3.56449 0.399002 0.853469 2.21945 0.853469 5.26184C0.853469 7.8803 2.81143 9.10224 4.9702 10.0249L6.27551 10.5736C7.90714 11.2469 9.53877 12.1197 9.53877 14.1397C9.53877 16.1097 8.08285 17.8055 6.04959 17.8055C4.01632 17.8055 2.35959 16.3092 2.38469 14.2394L0 14.7382C0.401632 17.7556 2.78632 20 5.84877 20C9.23754 20 11.8984 17.5561 11.8984 14.1397C11.8984 10.9975 9.8902 9.52618 7.20428 8.4788L5.84877 7.95511C4.66898 7.50623 3.21306 6.73317 3.21306 5.26184C3.21306 3.61596 4.86979 2.59352 6.37591 2.59352C7.80673 2.59352 8.7104 3.19202 9.41326 4.36409L11.2959 3.2419Z" fill="black"></path>
    <path d="M21.6658 8.37905V0.798005H19.3062V19.601H21.6658V10.5736H30.6774V19.601H33.037V0.798005H30.6774V8.37905H21.6658Z" fill="black"></path>
    <path d="M41.4664 19.601H51.6327V17.4564H43.826V10.3491H51.4068V8.20449H43.826V2.94264H51.6327V0.798005H41.4664V19.601Z" fill="black"></path>
    <path d="M61.9367 0.798005H59.5771V19.601H67.6851V17.4564H61.9367V0.798005Z" fill="black"></path>
    <path d="M76.6155 0.798005H74.2559V19.601H82.3639V17.4564H76.6155V0.798005Z" fill="black"></path>
    <path d="M100.306 14.8878L102.465 19.601H105L95.9633 0L86.9265 19.601H89.4618L91.6206 14.8878H100.306ZM99.3269 12.7431H92.5996L95.9633 5.13716L99.3269 12.7431Z" fill="black"></path>
</svg>